<svg id="Layer_2" data-name="Layer 2" xmlns="http://www.w3.org/2000/svg" viewBox="0 0 195.13 195.13" height="100px" width="100px" transform="rotate(0) scale(1, 1)">
  <defs>
    <style>.cls-1 { fill: #76b947; }.cls-2 { fill: #1c58ad; }.cls-3 { fill: #6aa740; }.cls-4 { fill: #16468a; }</style>
  </defs>
  <g id="Layer_1-2">
    <g>
      <path class="cls-2" d="M195.13,97.28c0,8.72-1.31,17.14-3.73,25.06l-2.57,1.34c-5.27,2.74-11.38,5.1-19.14,7.39,4.82-10.25,7.52-21.7,7.52-33.78,0-43.88-35.55-79.45-79.41-79.45-12.8,0-24.89,3.03-35.6,8.41,13.58-9.12,29.93-14.43,47.51-14.43,47.18,0,85.42,38.26,85.42,85.46Z"/>
      <g>
        <path class="cls-4" d="M74.1,106.92l-21.62-21.62c.68-1.59,1.05-3.35,1.05-5.18,0-7.34-5.97-13.31-13.31-13.31s-13.31,5.97-13.31,13.31,5.97,13.31,13.31,13.31c2.72,0,5.26-.82,7.37-2.23l20,20v15.15c1.84-.88,3.71-1.66,5.62-2.32.67-.23,1.34-.45,2.01-.65v-13.76c0-1.01-.4-1.98-1.12-2.7Z"/>
        <circle class="cls-3" cx="40.22" cy="80.12" r="5.68"/>
      </g>
      <g>
        <path class="cls-4" d="M51.52,120.85c1.05-1.9,1.65-4.08,1.65-6.41,0-7.34-5.97-13.31-13.31-13.31s-13.31,5.97-13.31,13.31,5.97,13.31,13.31,13.31c2.25,0,4.37-.56,6.23-1.55l8.59,8.59c1.99-1.69,4.05-3.24,6.16-4.62l-9.32-9.32Z"/>
        <path class="cls-3" d="M44.11,118.2c-.11.09-.23.19-.33.29-.09.09-.17.18-.25.28-.99.84-2.27,1.35-3.67,1.35-3.13,0-5.68-2.55-5.68-5.68s2.55-5.68,5.68-5.68,5.68,2.55,5.68,5.68c0,1.44-.54,2.76-1.43,3.76Z"/>
      </g>
      <g>
        <path class="cls-4" d="M87.68,78.54l-20.43-21.33c1.58-2.19,2.52-4.87,2.52-7.77,0-7.34-5.97-13.31-13.31-13.31s-13.31,5.97-13.31,13.31,5.97,13.31,13.31,13.31c1.66,0,3.24-.31,4.71-.86l19.94,20.82v39.34c2.45-.38,4.99-.57,7.63-.58v-40.29c0-.98-.38-1.93-1.06-2.64Z"/>
        <path class="cls-3" d="M56.46,55.12c-3.13,0-5.68-2.55-5.68-5.68s2.55-5.68,5.68-5.68,5.68,2.55,5.68,5.68-2.55,5.68-5.68,5.68Z"/>
      </g>
      <g>
        <path class="cls-4" d="M136.25,35.94c-7.34,0-13.31,5.97-13.31,13.31,0,2.33.6,4.52,1.66,6.43l-5.15,5.15c-.72.72-1.12,1.69-1.12,2.7v18.32l-15.65,15.65v-49.1c5.49-1.64,9.5-6.74,9.5-12.75,0-7.34-5.97-13.31-13.31-13.31s-13.31,5.97-13.31,13.31c0,6.01,4.01,11.11,9.5,12.75v73.38c2.56.26,5.1.66,7.63,1.16v-14.65l22.16-22.17c.71-.71,1.12-1.69,1.12-2.7v-18.32l4.08-4.08c1.86.98,3.97,1.54,6.21,1.54,7.34,0,13.31-5.97,13.31-13.31s-5.97-13.31-13.31-13.31Z"/>
        <path class="cls-3" d="M98.86,41.34c-3.13,0-5.68-2.55-5.68-5.68s2.55-5.68,5.68-5.68,5.68,2.55,5.68,5.68-2.55,5.68-5.68,5.68Z"/>
        <path class="cls-3" d="M136.25,54.94c-1.48,0-2.82-.57-3.83-1.49-.03-.03-.06-.07-.09-.1-.05-.05-.11-.1-.16-.15-.99-1.02-1.6-2.41-1.6-3.95,0-3.13,2.55-5.68,5.68-5.68s5.68,2.55,5.68,5.68-2.55,5.68-5.68,5.68Z"/>
      </g>
      <g>
        <path class="cls-4" d="M154.81,106.03c-6.01,0-11.11,4.01-12.75,9.5h-16.04l23.96-23.96c1.99,1.18,4.3,1.86,6.78,1.86,7.34,0,13.31-5.97,13.31-13.31s-5.97-13.31-13.31-13.31-13.31,5.97-13.31,13.31c0,2.09.49,4.08,1.35,5.84l-37.92,37.92c2.85.69,5.68,1.48,8.48,2.31l3.03-3.03h23.67c1.64,5.49,6.74,9.5,12.75,9.5,7.34,0,13.31-5.97,13.31-13.31s-5.97-13.31-13.31-13.31Z"/>
        <path class="cls-3" d="M156.76,74.43c3.13,0,5.68,2.55,5.68,5.68s-2.55,5.68-5.68,5.68-5.68-2.55-5.68-5.68,2.55-5.68,5.68-5.68Z"/>
        <path class="cls-3" d="M154.81,125.03c-3.13,0-5.68-2.55-5.68-5.68s2.55-5.68,5.68-5.68,5.68,2.55,5.68,5.68-2.55,5.68-5.68,5.68Z"/>
      </g>
      <g>
        <path class="cls-3" d="M169.29,135.02c-16.29,4.66-31.51,2.16-47.35-2.7-15.26-4.68-31.63-10.08-47.43-4.56-13.79,4.81-23.48,14.95-29.75,23.96,2.16,2.38,4.75,5,7.8,7.7,5.47,4.84,12.41,9.88,20.85,14.1,9.7,4.85,21.4,8.59,35.17,9.62,1.89.14,3.78.23,5.67.27,8.54.17,17.1-.71,25.46-2.43-9.72,3.78-20.26,5.92-31.28,6.05-20.01-.25-38.43-7.09-53.22-18.43-7.92-6.08-14.79-13.45-20.3-21.8-9.32-14.12-14.75-31.04-14.75-49.23s5.42-35.11,14.74-49.23C50.91,24.09,78.39,8.1,109.6,8.1c21.47,0,41.17,7.57,56.58,20.19C148.56,10.8,124.3,0,97.52,0,43.66,0,0,43.68,0,97.56c0,31.57,14.98,59.63,38.22,77.46.73.56,1.48,1.12,2.23,1.66,16.53,11.95,36.68,18.44,57.07,18.44,26.78,0,51.04-10.8,68.66-28.28,5.14-5.09,9.71-10.76,13.62-16.9,4.52-7.09,8.15-14.81,10.73-23-6.72,3.49-14.01,6-21.24,8.07Z"/>
        <path class="cls-1" d="M166.18,166.84c5.14-5.09,9.71-10.76,13.62-16.9,4.52-7.09,8.15-14.8,10.73-22.98-6.46,3.95-13.56,6.96-20.62,9.53-15.93,5.79-31.28,4.35-47.42.61-15.55-3.6-32.25-7.85-47.64-1.24-11.17,4.8-19.25,13.08-24.89,21.16.83.79,1.7,1.58,2.61,2.39,5.47,4.84,12.41,9.88,20.85,14.1,9.7,4.85,21.4,8.59,35.17,9.62,1.89.14,3.78.23,5.67.27,8.54.17,17.1-.71,25.46-2.43-9.72,3.78-20.26,5.92-31.28,6.05-20.01-.25-38.43-7.09-53.22-18.43-7.92-6.08-14.79-13.45-20.3-21.8-9.32-14.12-14.75-31.04-14.75-49.23s5.42-35.11,14.74-49.23C50.91,24.09,78.39,8.1,109.6,8.1c21.47,0,41.17,7.57,56.58,20.19C148.56,10.8,124.3,0,97.52,0,43.66,0,0,43.68,0,97.56c0,31.57,14.98,59.63,38.22,77.46.73.56,1.48,1.12,2.23,1.66,16.53,11.95,36.68,18.44,57.07,18.44,26.78,0,51.04-10.8,68.66-28.28Z"/>
      </g>
    </g>
  </g>
</svg>